<svg xmlns="http://www.w3.org/2000/svg" xmlns:svg="http://www.w3.org/2000/svg" id="svg2" width="9367.923" height="5295.056" version="1.1" viewBox="0 0 8782.428 4964.115"><metadata id="metadata7"/><g id="g4157" transform="translate(2203.3186,3074.6376)" style="display:inline"><rect id="rect4667" width="288.943" height="288.943" x="674.892" y="-2158.582" ry="0" style="display:inline;opacity:1;fill:none;fill-opacity:1;stroke:gray;stroke-width:11.05660725;stroke-miterlimit:4;stroke-dasharray:none;stroke-opacity:1"/><path style="display:inline;opacity:1;fill:#000;fill-opacity:1;stroke:#000;stroke-width:8.07780743;stroke-miterlimit:4;stroke-dasharray:none;stroke-opacity:1" id="path4673" d="m 723.11018,-1872.3736 c -7.47613,7.4761 -23.9146,3.1589 -36.71634,-9.6429 -12.80173,-12.8017 -17.11899,-29.2402 -9.64285,-36.7163 7.47612,-7.4762 126.05745,-105.3018 138.85919,-92.5 12.80175,12.8017 -85.02386,131.3831 -92.5,138.8592 z"/><rect style="display:inline;opacity:1;fill:none;fill-opacity:1;stroke:gray;stroke-width:11.05660725;stroke-miterlimit:4;stroke-dasharray:none;stroke-opacity:1" id="rect4689" width="288.943" height="288.943" x="1080.607" y="-2158.582" ry="0"/><path style="display:inline;opacity:1;fill:#000;fill-opacity:1;stroke:#000;stroke-width:8.07780743;stroke-miterlimit:4;stroke-dasharray:none;stroke-opacity:1" id="path4705" d="m 1057.3881,-1981.6958 c -10.5728,0 -19.1438,-14.6765 -19.1438,-32.7809 0,-18.1044 8.571,-32.7809 19.1438,-32.7809 10.5729,0 163.5957,14.6765 163.5957,32.7809 0,18.1044 -153.0228,32.7809 -163.5957,32.7809 z"/><text id="text4709" x="533.558" y="-1909.102" xml:space="preserve" style="font-style:normal;font-weight:400;line-height:0%;font-family:sans-serif;letter-spacing:0;word-spacing:0;fill:#000;fill-opacity:1;stroke:none;stroke-width:1px;stroke-linecap:butt;stroke-linejoin:miter;stroke-opacity:1"><tspan style="font-size:286.599px;line-height:1.25;text-align:end;text-anchor:end" id="tspan4711" x="533.558" y="-1909.102">Profile 1</tspan></text><rect style="display:inline;opacity:1;fill:none;fill-opacity:1;stroke:gray;stroke-width:11.05660725;stroke-miterlimit:4;stroke-dasharray:none;stroke-opacity:1" id="rect4719" width="288.943" height="288.943" x="674.892" y="-1738.175" ry="0"/><path id="path4725" d="m 723.11018,-1451.9654 c -7.47613,7.4761 -23.9146,3.1589 -36.71634,-9.6429 -12.80173,-12.8017 -17.11899,-29.2402 -9.64285,-36.7163 7.47612,-7.4762 126.05745,-105.3018 138.85919,-92.5 12.80175,12.8017 -85.02386,131.3831 -92.5,138.8592 z" style="display:inline;opacity:1;fill:#000;fill-opacity:1;stroke:#000;stroke-width:8.07780743;stroke-miterlimit:4;stroke-dasharray:none;stroke-opacity:1"/><rect id="rect4741" width="288.943" height="288.943" x="1080.607" y="-1738.175" ry="0" style="display:inline;opacity:1;fill:none;fill-opacity:1;stroke:gray;stroke-width:11.05660725;stroke-miterlimit:4;stroke-dasharray:none;stroke-opacity:1"/><path style="opacity:1;fill:#000;fill-opacity:1;stroke:#000;stroke-width:8.07780743;stroke-miterlimit:4;stroke-dasharray:none;stroke-opacity:1" id="path4759" d="m 1257.8594,-1758.4163 c 0,-10.5728 -14.6765,-19.1438 -32.7809,-19.1438 -18.1043,0 -32.7809,8.571 -32.7809,19.1438 0,10.5729 14.6765,163.5957 32.7809,163.5957 18.1044,0 32.781,-153.0228 32.7809,-163.5957 z"/><text style="font-style:normal;font-weight:400;line-height:0%;font-family:sans-serif;letter-spacing:0;word-spacing:0;fill:#000;fill-opacity:1;stroke:none;stroke-width:1px;stroke-linecap:butt;stroke-linejoin:miter;stroke-opacity:1" id="text4761" x="533.558" y="-1488.694" xml:space="preserve"><tspan id="tspan4763" x="533.558" y="-1488.694" style="font-size:286.599px;line-height:1.25;text-align:end;text-anchor:end">Profile 2</tspan></text><rect id="rect4771" width="288.943" height="288.943" x="674.892" y="-1317.766" ry="0" style="display:inline;opacity:1;fill:none;fill-opacity:1;stroke:gray;stroke-width:11.05660725;stroke-miterlimit:4;stroke-dasharray:none;stroke-opacity:1"/><path style="display:inline;opacity:1;fill:#000;fill-opacity:1;stroke:#000;stroke-width:8.07780743;stroke-miterlimit:4;stroke-dasharray:none;stroke-opacity:1" id="path4777" d="m 723.11018,-1031.5573 c -7.47613,7.4762 -23.9146,3.1589 -36.71634,-9.6428 -12.80173,-12.8018 -17.11899,-29.2402 -9.64285,-36.7164 7.47612,-7.4761 126.05745,-105.3017 138.85919,-92.5 12.80175,12.8018 -85.02386,131.3831 -92.5,138.8592 z"/><rect style="display:inline;opacity:1;fill:none;fill-opacity:1;stroke:gray;stroke-width:11.05660725;stroke-miterlimit:4;stroke-dasharray:none;stroke-opacity:1" id="rect4793" width="288.943" height="288.943" x="1080.607" y="-1317.766" ry="0"/><path id="path4807" d="m 1391.7486,-1205.9362 c 10.5729,0 19.1439,14.6766 19.1439,32.7809 0,18.1044 -8.571,32.7809 -19.1439,32.7809 -10.5728,10e-5 -163.5957,-14.6765 -163.5957,-32.7809 0,-18.1044 153.0229,-32.7809 163.5957,-32.7809 z" style="display:inline;opacity:1;fill:#000;fill-opacity:1;stroke:#000;stroke-width:8.07780743;stroke-miterlimit:4;stroke-dasharray:none;stroke-opacity:1"/><text id="text4813" x="533.558" y="-1068.286" xml:space="preserve" style="font-style:normal;font-weight:400;line-height:0%;font-family:sans-serif;letter-spacing:0;word-spacing:0;fill:#000;fill-opacity:1;stroke:none;stroke-width:1px;stroke-linecap:butt;stroke-linejoin:miter;stroke-opacity:1"><tspan style="font-size:286.599px;line-height:1.25;text-align:end;text-anchor:end" id="tspan4815" x="533.558" y="-1068.286">Profile 3</tspan></text><rect style="display:inline;opacity:1;fill:none;fill-opacity:1;stroke:gray;stroke-width:11.05660725;stroke-miterlimit:4;stroke-dasharray:none;stroke-opacity:1" id="rect4823" width="288.943" height="288.943" x="674.892" y="334.09" ry="0"/><path id="path4829" d="m 723.11018,620.29913 c -7.47613,7.4762 -23.9146,3.1589 -36.71634,-9.6428 -12.80173,-12.8018 -17.11899,-29.2402 -9.64285,-36.7164 7.47612,-7.4761 126.05745,-105.3017 138.85919,-92.5 12.80175,12.8017 -85.02386,131.3831 -92.5,138.8592 z" style="display:inline;opacity:1;fill:#000;fill-opacity:1;stroke:#000;stroke-width:8.07780743;stroke-miterlimit:4;stroke-dasharray:none;stroke-opacity:1"/><rect id="rect4845" width="288.943" height="288.943" x="1080.607" y="334.09" ry="0" style="display:inline;opacity:1;fill:none;fill-opacity:1;stroke:gray;stroke-width:11.05660725;stroke-miterlimit:4;stroke-dasharray:none;stroke-opacity:1"/><path id="path4849" d="m 1257.8594,644.36113 c 0,10.5728 -14.6765,19.1438 -32.7809,19.1438 -18.1043,0 -32.7809,-8.571 -32.7809,-19.1438 0,-10.5729 14.6765,-163.5957 32.7809,-163.5957 18.1044,0 32.781,153.0228 32.7809,163.5957 z" style="display:inline;opacity:1;fill:#000;fill-opacity:1;stroke:#000;stroke-width:8.07780743;stroke-miterlimit:4;stroke-dasharray:none;stroke-opacity:1"/><text style="font-style:normal;font-weight:400;line-height:0%;font-family:sans-serif;letter-spacing:0;word-spacing:0;fill:#000;fill-opacity:1;stroke:none;stroke-width:1px;stroke-linecap:butt;stroke-linejoin:miter;stroke-opacity:1" id="text4865" x="533.558" y="583.571" xml:space="preserve"><tspan id="tspan4867" x="533.558" y="583.571" style="font-size:286.599px;line-height:1.25;text-align:end;text-anchor:end">Calibrate Gyro</tspan></text><rect style="display:inline;opacity:1;fill:none;fill-opacity:1;stroke:gray;stroke-width:11.05660725;stroke-miterlimit:4;stroke-dasharray:none;stroke-opacity:1" id="rect4875" width="288.943" height="288.943" x="674.892" y="754.498" ry="0"/><path style="display:inline;opacity:1;fill:#000;fill-opacity:1;stroke:#000;stroke-width:8.07780743;stroke-miterlimit:4;stroke-dasharray:none;stroke-opacity:1" id="path4887" d="m 723.61526,756.36493 c -7.47613,-7.4762 -23.9146,-3.1589 -36.71634,9.6428 -12.80173,12.8018 -17.11899,29.2402 -9.64285,36.7164 7.47612,7.4761 126.05745,105.3017 138.85919,92.5 12.80175,-12.8018 -85.02386,-131.3831 -92.5,-138.8592 z"/><rect id="rect4897" width="288.943" height="288.943" x="1080.607" y="754.498" ry="0" style="display:inline;opacity:1;fill:none;fill-opacity:1;stroke:gray;stroke-width:11.05660725;stroke-miterlimit:4;stroke-dasharray:none;stroke-opacity:1"/><path id="path4901" d="m 1257.8594,1064.7693 c 0,10.5728 -14.6765,19.1438 -32.7809,19.1438 -18.1043,0 -32.7809,-8.571 -32.7809,-19.1438 0,-10.5729 14.6765,-163.59567 32.7809,-163.59567 18.1044,0 32.781,153.02277 32.7809,163.59567 z" style="display:inline;opacity:1;fill:#000;fill-opacity:1;stroke:#000;stroke-width:8.07780743;stroke-miterlimit:4;stroke-dasharray:none;stroke-opacity:1"/><text style="font-style:normal;font-weight:400;line-height:0%;font-family:sans-serif;letter-spacing:0;word-spacing:0;fill:#000;fill-opacity:1;stroke:none;stroke-width:1px;stroke-linecap:butt;stroke-linejoin:miter;stroke-opacity:1" id="text4917" x="533.558" y="1003.979" xml:space="preserve"><tspan id="tspan4919" x="533.558" y="1003.979" style="font-size:286.599px;line-height:1.25;text-align:end;text-anchor:end">Calibrate Acc</tspan></text><rect id="rect4927" width="288.943" height="288.943" x="677.619" y="1171.429" ry="0" style="display:inline;opacity:1;fill:none;fill-opacity:1;stroke:gray;stroke-width:11.05660725;stroke-miterlimit:4;stroke-dasharray:none;stroke-opacity:1"/><path style="display:inline;opacity:1;fill:#000;fill-opacity:1;stroke:#000;stroke-width:8.07780743;stroke-miterlimit:4;stroke-dasharray:none;stroke-opacity:1" id="path4937" d="m 917.46047,1173.2953 c 7.4762,-7.4762 23.9146,-3.1589 36.71635,9.6428 12.8017,12.8018 17.119,29.2402 9.6428,36.7163 -7.4761,7.4761 -126.05735,105.3018 -138.85915,92.5001 -12.8017,-12.8019 85.0239,-131.3831 92.5,-138.8592 z"/><rect style="display:inline;opacity:1;fill:none;fill-opacity:1;stroke:gray;stroke-width:11.05660725;stroke-miterlimit:4;stroke-dasharray:none;stroke-opacity:1" id="rect4949" width="288.943" height="288.943" x="1083.333" y="1171.429" ry="0"/><path style="display:inline;opacity:1;fill:#000;fill-opacity:1;stroke:#000;stroke-width:8.07780743;stroke-miterlimit:4;stroke-dasharray:none;stroke-opacity:1" id="path4953" d="m 1260.5857,1481.6997 c 0,10.5728 -14.6765,19.1438 -32.7809,19.1438 -18.1043,0 -32.7809,-8.571 -32.7809,-19.1438 0,-10.5729 14.6765,-163.5957 32.7809,-163.5957 18.1044,0 32.781,153.0228 32.7809,163.5957 z"/><text id="text4969" x="536.284" y="1420.909" xml:space="preserve" style="font-style:normal;font-weight:400;line-height:0%;font-family:sans-serif;letter-spacing:0;word-spacing:0;fill:#000;fill-opacity:1;stroke:none;stroke-width:1px;stroke-linecap:butt;stroke-linejoin:miter;stroke-opacity:1"><tspan style="font-size:286.599px;line-height:1.25;text-align:end;text-anchor:end" id="tspan4971" x="536.284" y="1420.909">Calibrate Compass</tspan></text><rect id="rect5607" width="288.943" height="288.943" x="5815.433" y="-1750.241" ry="0" style="display:inline;opacity:1;fill:none;fill-opacity:1;stroke:gray;stroke-width:11.05660725;stroke-miterlimit:4;stroke-dasharray:none;stroke-opacity:1"/><path style="display:inline;opacity:1;fill:#000;fill-opacity:1;stroke:#000;stroke-width:8.07780743;stroke-miterlimit:4;stroke-dasharray:none;stroke-opacity:1" id="path5613" d="m 5863.6503,-1464.0322 c -7.4762,7.4761 -23.9146,3.1588 -36.7164,-9.6429 -12.8017,-12.8017 -17.119,-29.2402 -9.6428,-36.7163 7.4761,-7.4762 126.0574,-105.3018 138.8592,-92.5 12.8017,12.8017 -85.0239,131.383 -92.5,138.8592 z"/><rect style="display:inline;opacity:1;fill:none;fill-opacity:1;stroke:gray;stroke-width:11.05660725;stroke-miterlimit:4;stroke-dasharray:none;stroke-opacity:1" id="rect5629" width="288.943" height="288.943" x="6221.147" y="-1750.241" ry="0"/><path id="path5639" d="m 6460.9887,-1748.3747 c 7.4761,-7.4762 23.9146,-3.1589 36.7163,9.6428 12.8017,12.8018 17.119,29.2402 9.6428,36.7164 -7.4761,7.4761 -126.0574,105.3017 -138.8591,92.5 -12.8018,-12.8018 85.0238,-131.3831 92.5,-138.8592 z" style="display:inline;opacity:1;fill:#000;fill-opacity:1;stroke:#000;stroke-width:8.07780743;stroke-miterlimit:4;stroke-dasharray:none;stroke-opacity:1"/><text id="text5649" x="5680.797" y="-1527.555" xml:space="preserve" style="font-style:normal;font-weight:400;line-height:0%;font-family:sans-serif;letter-spacing:0;word-spacing:0;fill:#000;fill-opacity:1;stroke:none;stroke-width:1px;stroke-linecap:butt;stroke-linejoin:miter;stroke-opacity:1"><tspan style="font-size:286.599px;line-height:1.25;text-align:end;text-anchor:end" id="tspan5651" x="5680.797" y="-1527.555">In-flight Calibration Controls</tspan></text><rect style="display:inline;opacity:1;fill:none;fill-opacity:1;stroke:gray;stroke-width:11.05660725;stroke-miterlimit:4;stroke-dasharray:none;stroke-opacity:1" id="rect5659" width="288.943" height="288.943" x="5815.433" y="-1329.833" ry="0"/><path id="path5677" d="m 5992.6852,-1350.0749 c 0,-10.5728 -14.6765,-19.1438 -32.7809,-19.1438 -18.1044,0 -32.7809,8.571 -32.7809,19.1438 0,10.5728 14.6765,163.5956 32.7809,163.5956 18.1044,0 32.7809,-153.0228 32.7809,-163.5956 z" style="opacity:1;fill:#000;fill-opacity:1;stroke:#000;stroke-width:8.07780743;stroke-miterlimit:4;stroke-dasharray:none;stroke-opacity:1"/><rect id="rect5681" width="288.943" height="288.943" x="6221.147" y="-1329.833" ry="0" style="display:inline;opacity:1;fill:none;fill-opacity:1;stroke:gray;stroke-width:11.05660725;stroke-miterlimit:4;stroke-dasharray:none;stroke-opacity:1"/><path id="path5697" d="m 6197.9282,-1152.9463 c -10.5729,0 -19.1438,-14.6765 -19.1438,-32.7809 0,-18.1044 8.5709,-32.7809 19.1438,-32.7809 10.5728,0 163.5957,14.6765 163.5957,32.7809 0,18.1044 -153.0229,32.7809 -163.5957,32.7809 z" style="display:inline;opacity:1;fill:#000;fill-opacity:1;stroke:#000;stroke-width:8.07780743;stroke-miterlimit:4;stroke-dasharray:none;stroke-opacity:1"/><text style="font-style:normal;font-weight:400;line-height:0%;font-family:sans-serif;letter-spacing:0;word-spacing:0;fill:#000;fill-opacity:1;stroke:none;stroke-width:1px;stroke-linecap:butt;stroke-linejoin:miter;stroke-opacity:1" id="text5701" x="5680.797" y="-1107.147" xml:space="preserve"><tspan id="tspan5703" x="5680.797" y="-1107.147" style="font-size:286.599px;line-height:1.25;text-align:end;text-anchor:end">Trim Acc Left</tspan></text><rect style="display:inline;opacity:1;fill:none;fill-opacity:1;stroke:gray;stroke-width:11.05660725;stroke-miterlimit:4;stroke-dasharray:none;stroke-opacity:1" id="rect5711" width="288.943" height="288.943" x="5815.433" y="-909.425" ry="0"/><path id="path5729" d="m 5992.6852,-929.66661 c 0,-10.57295 -14.6765,-19.14395 -32.7809,-19.14395 -18.1044,0 -32.7809,8.571 -32.7809,19.14395 0,10.5728 14.6765,163.5956 32.7809,163.5956 18.1044,0 32.7809,-153.0228 32.7809,-163.5956 z" style="opacity:1;fill:#000;fill-opacity:1;stroke:#000;stroke-width:8.07780743;stroke-miterlimit:4;stroke-dasharray:none;stroke-opacity:1"/><rect id="rect5733" width="288.943" height="288.943" x="6221.147" y="-909.425" ry="0" style="display:inline;opacity:1;fill:none;fill-opacity:1;stroke:gray;stroke-width:11.05660725;stroke-miterlimit:4;stroke-dasharray:none;stroke-opacity:1"/><path style="display:inline;opacity:1;fill:#000;fill-opacity:1;stroke:#000;stroke-width:8.07780743;stroke-miterlimit:4;stroke-dasharray:none;stroke-opacity:1" id="path5747" d="m 6532.2887,-797.59471 c 10.5728,0 19.1438,14.6765 19.1438,32.7809 0,18.1044 -8.571,32.7809 -19.1438,32.7809 -10.5729,0 -163.5957,-14.6765 -163.5957,-32.7809 0,-18.1044 153.0228,-32.7809 163.5957,-32.7809 z"/><text style="font-style:normal;font-weight:400;line-height:0%;font-family:sans-serif;letter-spacing:0;word-spacing:0;fill:#000;fill-opacity:1;stroke:none;stroke-width:1px;stroke-linecap:butt;stroke-linejoin:miter;stroke-opacity:1" id="text5753" x="5680.797" y="-686.739" xml:space="preserve"><tspan id="tspan5755" x="5680.797" y="-686.739" style="font-size:286.599px;line-height:1.25;text-align:end;text-anchor:end">Trim Acc Right</tspan></text><rect id="rect5763" width="288.943" height="288.943" x="5815.433" y="-489.017" ry="0" style="display:inline;opacity:1;fill:none;fill-opacity:1;stroke:gray;stroke-width:11.05660725;stroke-miterlimit:4;stroke-dasharray:none;stroke-opacity:1"/><path style="opacity:1;fill:#000;fill-opacity:1;stroke:#000;stroke-width:8.07780743;stroke-miterlimit:4;stroke-dasharray:none;stroke-opacity:1" id="path5781" d="m 5992.6852,-509.25849 c 0,-10.57285 -14.6765,-19.14384 -32.7809,-19.14384 -18.1044,0 -32.7809,8.57099 -32.7809,19.14384 0,10.57285 14.6765,163.59566 32.7809,163.59566 18.1044,0 32.7809,-153.02281 32.7809,-163.59566 z"/><rect style="display:inline;opacity:1;fill:none;fill-opacity:1;stroke:gray;stroke-width:11.05660725;stroke-miterlimit:4;stroke-dasharray:none;stroke-opacity:1" id="rect5785" width="288.943" height="288.943" x="6221.147" y="-489.017" ry="0"/><path id="path5803" d="m 6398.3995,-509.25849 c 0,-10.57285 -14.6765,-19.14384 -32.7809,-19.14384 -18.1044,0 -32.7809,8.57099 -32.7809,19.14384 0,10.57285 14.6765,163.59566 32.7809,163.59566 18.1044,0 32.7809,-153.02281 32.7809,-163.59566 z" style="opacity:1;fill:#000;fill-opacity:1;stroke:#000;stroke-width:8.07780743;stroke-miterlimit:4;stroke-dasharray:none;stroke-opacity:1"/><text id="text5805" x="5680.797" y="-266.331" xml:space="preserve" style="font-style:normal;font-weight:400;line-height:0%;font-family:sans-serif;letter-spacing:0;word-spacing:0;fill:#000;fill-opacity:1;stroke:none;stroke-width:1px;stroke-linecap:butt;stroke-linejoin:miter;stroke-opacity:1"><tspan style="font-size:286.599px;line-height:1.25;text-align:end;text-anchor:end" id="tspan5807" x="5680.797" y="-266.331">Trim Acc Forwards</tspan></text><rect style="display:inline;opacity:1;fill:none;fill-opacity:1;stroke:gray;stroke-width:11.05660725;stroke-miterlimit:4;stroke-dasharray:none;stroke-opacity:1" id="rect5815" width="288.943" height="288.943" x="5815.433" y="-68.609" ry="0"/><path id="path5833" d="m 5992.6852,-88.85034 c 0,-10.57285 -14.6765,-19.14384 -32.7809,-19.14384 -18.1044,0 -32.7809,8.57099 -32.7809,19.14384 0,10.57285 14.6765,163.595666 32.7809,163.595666 18.1044,0 32.7809,-153.022816 32.7809,-163.595666 z" style="opacity:1;fill:#000;fill-opacity:1;stroke:#000;stroke-width:8.07780743;stroke-miterlimit:4;stroke-dasharray:none;stroke-opacity:1"/><rect id="rect5837" width="288.943" height="288.943" x="6221.147" y="-68.609" ry="0" style="display:inline;opacity:1;fill:none;fill-opacity:1;stroke:gray;stroke-width:11.05660725;stroke-miterlimit:4;stroke-dasharray:none;stroke-opacity:1"/><path id="path5841" d="m 6398.3995,241.66241 c 0,10.57285 -14.6765,19.14384 -32.7809,19.14384 -18.1044,0 -32.7809,-8.57099 -32.7809,-19.14384 0,-10.57285 14.6765,-163.595653 32.7809,-163.595653 18.1044,0 32.7809,153.022803 32.7809,163.595653 z" style="display:inline;opacity:1;fill:#000;fill-opacity:1;stroke:#000;stroke-width:8.07780743;stroke-miterlimit:4;stroke-dasharray:none;stroke-opacity:1"/><text style="font-style:normal;font-weight:400;line-height:0%;font-family:sans-serif;letter-spacing:0;word-spacing:0;fill:#000;fill-opacity:1;stroke:none;stroke-width:1px;stroke-linecap:butt;stroke-linejoin:miter;stroke-opacity:1" id="text5857" x="5680.797" y="154.078" xml:space="preserve"><tspan id="tspan5859" x="5680.797" y="154.078" style="font-size:286.599px;line-height:1.25;text-align:end;text-anchor:end">Trim Acc Backwards</tspan></text><rect id="rect5867" width="288.943" height="288.943" x="5815.433" y="351.799" ry="0" style="display:inline;opacity:1;fill:none;fill-opacity:1;stroke:gray;stroke-width:11.05660725;stroke-miterlimit:4;stroke-dasharray:none;stroke-opacity:1"/><path id="path5871" d="m 5992.6852,662.07066 c 0,10.5728 -14.6765,19.1438 -32.7809,19.1438 -18.1044,0 -32.7809,-8.571 -32.7809,-19.1438 0,-10.5729 14.6765,-163.5957 32.7809,-163.5957 18.1044,0 32.7809,153.0228 32.7809,163.5957 z" style="display:inline;opacity:1;fill:#000;fill-opacity:1;stroke:#000;stroke-width:8.07780743;stroke-miterlimit:4;stroke-dasharray:none;stroke-opacity:1"/><rect style="display:inline;opacity:1;fill:none;fill-opacity:1;stroke:gray;stroke-width:11.05660725;stroke-miterlimit:4;stroke-dasharray:none;stroke-opacity:1" id="rect5889" width="288.943" height="288.943" x="6221.147" y="351.799" ry="0"/><path style="display:inline;opacity:1;fill:#000;fill-opacity:1;stroke:#000;stroke-width:8.07780743;stroke-miterlimit:4;stroke-dasharray:none;stroke-opacity:1" id="path5901" d="m 6269.8696,353.66621 c -7.4761,-7.47613 -23.9146,-3.15888 -36.7163,9.64286 -12.8017,12.80174 -17.119,29.2402 -9.6428,36.71634 7.4761,7.47614 126.0574,105.30174 138.8591,92.5 12.8018,-12.80174 -85.0238,-131.38307 -92.5,-138.8592 z"/><text id="text5909" x="5680.797" y="574.486" xml:space="preserve" style="font-style:normal;font-weight:400;line-height:0%;font-family:sans-serif;letter-spacing:0;word-spacing:0;fill:#000;fill-opacity:1;stroke:none;stroke-width:1px;stroke-linecap:butt;stroke-linejoin:miter;stroke-opacity:1"><tspan style="font-size:286.599px;line-height:1.25;text-align:end;text-anchor:end" id="tspan5911" x="5680.797" y="574.486">Save waypoint mission</tspan></text><rect id="rect5919" width="288.943" height="288.943" x="5815.433" y="772.208" ry="0" style="display:inline;opacity:1;fill:none;fill-opacity:1;stroke:gray;stroke-width:11.05660725;stroke-miterlimit:4;stroke-dasharray:none;stroke-opacity:1"/><path id="path5923" d="m 5992.6852,1082.4789 c 0,10.5728 -14.6765,19.1438 -32.7809,19.1438 -18.1044,0 -32.7809,-8.571 -32.7809,-19.1438 0,-10.5729 14.6765,-163.59574 32.7809,-163.59574 18.1044,0 32.7809,153.02284 32.7809,163.59574 z" style="display:inline;opacity:1;fill:#000;fill-opacity:1;stroke:#000;stroke-width:8.07780743;stroke-miterlimit:4;stroke-dasharray:none;stroke-opacity:1"/><rect style="display:inline;opacity:1;fill:none;fill-opacity:1;stroke:gray;stroke-width:11.05660725;stroke-miterlimit:4;stroke-dasharray:none;stroke-opacity:1" id="rect5941" width="288.943" height="288.943" x="6221.147" y="772.208" ry="0"/><path id="path5951" d="m 6460.9887,774.07446 c 7.4761,-7.4762 23.9146,-3.1589 36.7163,9.6428 12.8017,12.8018 17.119,29.2402 9.6428,36.7164 -7.4761,7.4761 -126.0574,105.3017 -138.8591,92.5 -12.8018,-12.8018 85.0238,-131.3831 92.5,-138.8592 z" style="display:inline;opacity:1;fill:#000;fill-opacity:1;stroke:#000;stroke-width:8.07780743;stroke-miterlimit:4;stroke-dasharray:none;stroke-opacity:1"/><text id="text5961" x="5680.797" y="994.894" xml:space="preserve" style="font-style:normal;font-weight:400;line-height:0%;font-family:sans-serif;letter-spacing:0;word-spacing:0;fill:#000;fill-opacity:1;stroke:none;stroke-width:1px;stroke-linecap:butt;stroke-linejoin:miter;stroke-opacity:1"><tspan style="font-size:286.599px;line-height:1.25;text-align:end;text-anchor:end" id="tspan5963" x="5680.797" y="994.894">(Un)/load waypoint mission</tspan></text><rect style="display:inline;opacity:1;fill:none;fill-opacity:1;stroke:gray;stroke-width:11.05660725;stroke-miterlimit:4;stroke-dasharray:none;stroke-opacity:1" id="rect5971" width="288.943" height="288.943" x="5815.433" y="1192.616" ry="0"/><path id="path5977" d="m 5863.6503,1478.825 c -7.4762,7.4762 -23.9146,3.1589 -36.7164,-9.6428 -12.8017,-12.8018 -17.119,-29.2402 -9.6428,-36.7164 7.4761,-7.4761 126.0574,-105.3017 138.8592,-92.5 12.8017,12.8018 -85.0239,131.3831 -92.5,138.8592 z" style="display:inline;opacity:1;fill:#000;fill-opacity:1;stroke:#000;stroke-width:8.07780743;stroke-miterlimit:4;stroke-dasharray:none;stroke-opacity:1"/><rect id="rect5993" width="288.943" height="288.943" x="6221.147" y="1192.616" ry="0" style="display:inline;opacity:1;fill:none;fill-opacity:1;stroke:gray;stroke-width:11.05660725;stroke-miterlimit:4;stroke-dasharray:none;stroke-opacity:1"/><path id="path6001" d="m 6460.9887,1478.825 c 7.4761,7.4762 23.9146,3.1589 36.7163,-9.6428 12.8017,-12.8018 17.119,-29.2402 9.6428,-36.7164 -7.4761,-7.4761 -126.0574,-105.3017 -138.8591,-92.5 -12.8018,12.8018 85.0238,131.3831 92.5,138.8592 z" style="display:inline;opacity:1;fill:#000;fill-opacity:1;stroke:#000;stroke-width:8.07780743;stroke-miterlimit:4;stroke-dasharray:none;stroke-opacity:1"/><text style="font-style:normal;font-weight:400;line-height:0%;font-family:sans-serif;letter-spacing:0;word-spacing:0;fill:#000;fill-opacity:1;stroke:none;stroke-width:1px;stroke-linecap:butt;stroke-linejoin:miter;stroke-opacity:1" id="text6013" x="5680.797" y="1415.302" xml:space="preserve"><tspan id="tspan6015" x="5680.797" y="1415.302" style="font-size:286.599px;line-height:1.25;text-align:end;text-anchor:end">Save Setting</tspan></text><text style="font-style:normal;font-weight:400;line-height:0%;font-family:sans-serif;letter-spacing:0;word-spacing:0;fill:#000;fill-opacity:1;stroke:none;stroke-width:1px;stroke-linecap:butt;stroke-linejoin:miter;stroke-opacity:1" id="text4221" x="5690.671" y="-1955.077" xml:space="preserve"><tspan id="tspan4219" x="5690.671" y="-1955.077" style="font-size:286.599px;line-height:1.25;text-align:end;text-anchor:end">Enter OSD Menu (CMS)</tspan></text><text style="font-style:normal;font-weight:400;line-height:0%;font-family:sans-serif;letter-spacing:0;word-spacing:0;fill:#000;fill-opacity:1;stroke:none;stroke-width:1px;stroke-linecap:butt;stroke-linejoin:miter;stroke-opacity:1" id="text7907" x="2179.281" y="-2663.063" xml:space="preserve"><tspan id="tspan7909" x="2179.281" y="-2663.063" style="font-size:352.858px;line-height:1.25;text-align:center;text-anchor:middle">Mode 2 Stick Functions</tspan></text><rect style="display:inline;opacity:1;fill:none;fill-opacity:1;stroke:gray;stroke-width:11.05660725;stroke-miterlimit:4;stroke-dasharray:none;stroke-opacity:1" id="rect927" width="288.943" height="288.943" x="674.892" y="-922.551" ry="0"/><rect id="rect931" width="288.943" height="288.943" x="1080.607" y="-922.551" ry="0" style="display:inline;opacity:1;fill:none;fill-opacity:1;stroke:gray;stroke-width:11.05660725;stroke-miterlimit:4;stroke-dasharray:none;stroke-opacity:1"/><path id="path933" d="m 1057.3881,-745.66346 c -10.5728,0 -19.1438,-14.6765 -19.1438,-32.7809 0,-18.10445 8.571,-32.78095 19.1438,-32.78095 10.5729,0 163.5957,14.6765 163.5957,32.78095 0,18.1044 -153.0228,32.7809 -163.5957,32.7809 z" style="display:inline;opacity:1;fill:#000;fill-opacity:1;stroke:#000;stroke-width:8.07780743;stroke-miterlimit:4;stroke-dasharray:none;stroke-opacity:1"/><text style="font-style:normal;font-weight:400;line-height:0%;font-family:sans-serif;letter-spacing:0;word-spacing:0;fill:#000;fill-opacity:1;stroke:none;stroke-width:1px;stroke-linecap:butt;stroke-linejoin:miter;stroke-opacity:1" id="text937" x="533.558" y="-673.07" xml:space="preserve"><tspan id="tspan935" x="533.558" y="-673.07" style="font-size:286.599px;line-height:1.25;text-align:end;text-anchor:end">Battery profile 1</tspan></text><rect style="display:inline;opacity:1;fill:none;fill-opacity:1;stroke:gray;stroke-width:11.05660725;stroke-miterlimit:4;stroke-dasharray:none;stroke-opacity:1" id="rect943" width="288.943" height="288.943" x="1080.607" y="-502.142" ry="0"/><path id="path945" d="m 1257.8594,-522.38396 c 0,-10.5728 -14.6765,-19.14379 -32.7809,-19.14379 -18.1043,0 -32.7809,8.57099 -32.7809,19.14379 0,10.5729 14.6765,163.59569 32.7809,163.59569 18.1044,0 32.781,-153.02279 32.7809,-163.59569 z" style="opacity:1;fill:#000;fill-opacity:1;stroke:#000;stroke-width:8.07780743;stroke-miterlimit:4;stroke-dasharray:none;stroke-opacity:1"/><text id="text949" x="533.558" y="-252.662" xml:space="preserve" style="font-style:normal;font-weight:400;line-height:0%;font-family:sans-serif;letter-spacing:0;word-spacing:0;fill:#000;fill-opacity:1;stroke:none;stroke-width:1px;stroke-linecap:butt;stroke-linejoin:miter;stroke-opacity:1"><tspan style="font-size:286.599px;line-height:1.25;text-align:end;text-anchor:end" id="tspan947" x="533.558" y="-252.662">Battery profile 2</tspan></text><rect id="rect955" width="288.943" height="288.943" x="1080.607" y="-81.734" ry="0" style="display:inline;opacity:1;fill:none;fill-opacity:1;stroke:gray;stroke-width:11.05660725;stroke-miterlimit:4;stroke-dasharray:none;stroke-opacity:1"/><path style="display:inline;opacity:1;fill:#000;fill-opacity:1;stroke:#000;stroke-width:8.07780743;stroke-miterlimit:4;stroke-dasharray:none;stroke-opacity:1" id="path957" d="m 1391.7486,30.096157 c 10.5729,0 19.1439,14.67651 19.1439,32.780899 0,18.104391 -8.571,32.780901 -19.1439,32.780901 -10.5728,1e-5 -163.5957,-14.6765 -163.5957,-32.780901 0,-18.104399 153.0229,-32.780909 163.5957,-32.780899 z"/><text style="font-style:normal;font-weight:400;line-height:0%;font-family:sans-serif;letter-spacing:0;word-spacing:0;fill:#000;fill-opacity:1;stroke:none;stroke-width:1px;stroke-linecap:butt;stroke-linejoin:miter;stroke-opacity:1" id="text961" x="533.558" y="167.747" xml:space="preserve"><tspan id="tspan959" x="533.558" y="167.747" style="font-size:286.599px;line-height:1.25;text-align:end;text-anchor:end">Battery profile 3</tspan></text><path id="path963" d="m 725.72464,-919.41631 c -7.47613,-7.4762 -23.9146,-3.1589 -36.71634,9.6428 -12.80173,12.8018 -17.11899,29.2402 -9.64285,36.7164 7.47612,7.4761 126.05745,105.30172 138.85919,92.50002 12.80175,-12.80182 -85.02386,-131.38312 -92.5,-138.85922 z" style="display:inline;opacity:1;fill:#000;fill-opacity:1;stroke:#000;stroke-width:8.07780743;stroke-miterlimit:4;stroke-dasharray:none;stroke-opacity:1"/><rect id="rect973" width="288.943" height="288.943" x="669.438" y="-502.142" ry="0" style="display:inline;opacity:1;fill:none;fill-opacity:1;stroke:gray;stroke-width:11.05660725;stroke-miterlimit:4;stroke-dasharray:none;stroke-opacity:1"/><path style="display:inline;opacity:1;fill:#000;fill-opacity:1;stroke:#000;stroke-width:8.07780743;stroke-miterlimit:4;stroke-dasharray:none;stroke-opacity:1" id="path975" d="m 720.2705,-499.00813 c -7.47613,-7.4762 -23.9146,-3.1589 -36.71634,9.6428 -12.80173,12.8018 -17.11899,29.2402 -9.64285,36.7164 7.47612,7.4761 126.05745,105.3017 138.85919,92.5 12.80175,-12.8018 -85.02386,-131.3831 -92.5,-138.8592 z"/><rect style="display:inline;opacity:1;fill:none;fill-opacity:1;stroke:gray;stroke-width:11.05660725;stroke-miterlimit:4;stroke-dasharray:none;stroke-opacity:1" id="rect977" width="288.943" height="288.943" x="669.438" y="-84.66" ry="0"/><path id="path979" d="m 720.27053,-81.52574 c -7.47613,-7.4762 -23.9146,-3.1589 -36.71634,9.6428 -12.80173,12.8018 -17.11899,29.2402 -9.64285,36.7164 7.47612,7.476097 126.05745,105.301696 138.85919,92.499996 12.80175,-12.801799 -85.02386,-131.383096 -92.5,-138.859196 z" style="display:inline;opacity:1;fill:#000;fill-opacity:1;stroke:#000;stroke-width:8.07780743;stroke-miterlimit:4;stroke-dasharray:none;stroke-opacity:1"/><rect id="rect5919-6" width="288.943" height="288.943" x="-6503.22" y="1890.829" ry="0" transform="scale(-1)" style="display:inline;opacity:1;fill:none;fill-opacity:1;stroke:gray;stroke-width:11.05660725;stroke-miterlimit:4;stroke-dasharray:none;stroke-opacity:1"/><path id="path5923-2" d="m 6325.9671,-2201.1007 c 0,-10.5728 14.6765,-19.1438 32.7809,-19.1438 18.1044,0 32.7809,8.571 32.7809,19.1438 0,10.5729 -14.6765,163.5957 -32.7809,163.5957 -18.1044,0 -32.7809,-153.0228 -32.7809,-163.5957 z" style="display:inline;opacity:1;fill:#000;fill-opacity:1;stroke:#000;stroke-width:8.07780743;stroke-miterlimit:4;stroke-dasharray:none;stroke-opacity:1"/><rect id="rect5733-9" width="288.943" height="288.943" x="-6098.468" y="-2179.584" ry="0" transform="scale(-1,1)" style="display:inline;opacity:1;fill:none;fill-opacity:1;stroke:gray;stroke-width:11.05660725;stroke-miterlimit:4;stroke-dasharray:none;stroke-opacity:1"/><path style="display:inline;opacity:1;fill:#000;fill-opacity:1;stroke:#000;stroke-width:8.07780743;stroke-miterlimit:4;stroke-dasharray:none;stroke-opacity:1" id="path5747-5" d="m 5787.3265,-2067.7533 c -10.5728,0 -19.1438,14.6765 -19.1438,32.7809 0,18.1044 8.571,32.7809 19.1438,32.7809 10.5729,0 163.5957,-14.6765 163.5957,-32.7809 0,-18.1044 -153.0228,-32.7809 -163.5957,-32.7809 z"/></g></svg>